<svg xmlns="http://www.w3.org/2000/svg" viewBox="0 0 100 100" fill="none">
  <rect width="100" height="100" rx="20" fill="url(#grad)"/>
  <defs>
    <linearGradient id="grad" x1="0" y1="0" x2="100" y2="100" gradientUnits="userSpaceOnUse">
      <stop offset="0%" stop-color="#3b82f6"/>
      <stop offset="100%" stop-color="#a855f7"/>
    </linearGradient>
  </defs>
  <rect x="30" y="30" width="40" height="40" rx="6" stroke="#fff" stroke-width="3" fill="none"/>
  <circle cx="50" cy="50" r="8" fill="#fff"/>
  <line x1="38" y1="30" x2="38" y2="20" stroke="#fff" stroke-width="3" stroke-linecap="round"/>
  <line x1="50" y1="30" x2="50" y2="20" stroke="#fff" stroke-width="3" stroke-linecap="round"/>
  <line x1="62" y1="30" x2="62" y2="20" stroke="#fff" stroke-width="3" stroke-linecap="round"/>
  <line x1="38" y1="70" x2="38" y2="80" stroke="#fff" stroke-width="3" stroke-linecap="round"/>
  <line x1="50" y1="70" x2="50" y2="80" stroke="#fff" stroke-width="3" stroke-linecap="round"/>
  <line x1="62" y1="70" x2="62" y2="80" stroke="#fff" stroke-width="3" stroke-linecap="round"/>
  <line x1="30" y1="38" x2="20" y2="38" stroke="#fff" stroke-width="3" stroke-linecap="round"/>
  <line x1="30" y1="50" x2="20" y2="50" stroke="#fff" stroke-width="3" stroke-linecap="round"/>
  <line x1="30" y1="62" x2="20" y2="62" stroke="#fff" stroke-width="3" stroke-linecap="round"/>
  <line x1="70" y1="38" x2="80" y2="38" stroke="#fff" stroke-width="3" stroke-linecap="round"/>
  <line x1="70" y1="50" x2="80" y2="50" stroke="#fff" stroke-width="3" stroke-linecap="round"/>
  <line x1="70" y1="62" x2="80" y2="62" stroke="#fff" stroke-width="3" stroke-linecap="round"/>
</svg>
